<?xml version="1.0" standalone="no"?>
<!DOCTYPE svg PUBLIC "-//W3C//DTD SVG 20010904//EN"
 "http://www.w3.org/TR/2001/REC-SVG-20010904/DTD/svg10.dtd">
<svg version="1.0" xmlns="http://www.w3.org/2000/svg"
 width="640.000000pt" height="640.000000pt" viewBox="0 0 640.000000 640.000000"
 preserveAspectRatio="xMidYMid meet">
<metadata>
Created by potrace 1.14, written by Peter Selinger 2001-2017
</metadata>
<g transform="translate(0.000000,640.000000) scale(0.100000,-0.100000)"
fill="#000000" stroke="none">
<path d="M5499 5756 c-2 -2 -22 -7 -44 -10 -219 -34 -440 -193 -554 -400 -33
-58 -71 -153 -76 -191 -2 -11 -4 -20 -5 -20 -2 0 -9 -36 -14 -77 -2 -20 -7
-42 -11 -47 -3 -6 -3 -11 2 -11 4 0 8 -35 8 -78 0 -42 5 -99 12 -127 22 -83
55 -185 62 -185 3 0 13 -15 20 -32 35 -80 204 -268 240 -268 5 0 11 -4 13 -9
4 -12 145 -85 193 -99 95 -30 180 -41 284 -37 91 4 146 9 146 15 0 1 9 3 20 5
38 5 133 43 191 76 94 51 165 111 231 194 62 78 99 142 134 230 59 152 61 360
5 535 -48 152 -176 316 -319 410 -63 41 -198 98 -251 107 -16 3 -39 8 -50 12
-21 8 -230 13 -237 7z"/>
<path d="M2485 5113 c-32 -7 -98 -36 -130 -58 -51 -35 -87 -80 -179 -227 -50
-79 -109 -173 -133 -210 -24 -37 -43 -72 -43 -77 0 -6 -4 -11 -10 -11 -5 0
-10 -5 -10 -10 0 -6 -5 -16 -11 -23 -18 -21 -189 -298 -189 -307 0 -5 -4 -10
-8 -12 -4 -1 -21 -25 -37 -53 -15 -27 -31 -52 -34 -55 -4 -3 -27 -38 -51 -78
-25 -40 -52 -84 -60 -97 -13 -20 -53 -85 -101 -164 -9 -14 -64 -102 -123 -194
-58 -92 -106 -172 -106 -177 0 -6 -4 -10 -10 -10 -5 0 -10 -7 -10 -15 0 -8 -4
-15 -9 -15 -5 0 -11 -8 -15 -17 -5 -17 -136 -227 -154 -248 -4 -5 -11 -17 -15
-25 -4 -8 -15 -27 -25 -42 -9 -16 -50 -80 -91 -144 -41 -64 -80 -130 -88 -145
-8 -16 -19 -29 -24 -29 -5 0 -9 -5 -9 -10 0 -9 -160 -270 -256 -417 -19 -28
-34 -56 -34 -61 0 -6 -3 -12 -8 -14 -7 -3 -208 -319 -227 -358 -5 -11 -13 -20
-17 -20 -5 0 -8 -5 -8 -10 0 -6 -8 -23 -18 -38 -45 -66 -132 -202 -132 -207 0
-2 -13 -25 -30 -51 -27 -43 -51 -102 -67 -165 -10 -42 -12 -185 -2 -230 42
-196 177 -349 369 -420 l65 -24 2720 -2 2720 -2 87 29 c49 16 112 45 142 64
81 51 190 167 202 213 3 13 10 23 15 23 5 0 9 4 9 9 0 5 8 26 17 47 19 44 18
42 32 109 18 93 0 295 -31 332 -6 7 -8 13 -5 13 9 0 -46 97 -163 288 -63 102
-117 191 -119 197 -2 5 -13 23 -24 38 -20 29 -169 272 -194 317 -8 14 -22 37
-31 52 -17 27 -163 266 -185 303 -7 11 -14 22 -17 25 -3 3 -11 16 -19 30 -52
91 -197 326 -203 328 -5 2 -8 8 -8 13 0 5 -34 64 -76 131 -41 67 -83 136 -91
153 -9 16 -19 32 -22 35 -4 3 -42 64 -85 135 -147 246 -149 248 -198 278 -62
38 -142 45 -204 18 -71 -32 -73 -35 -241 -311 -39 -63 -82 -135 -97 -160 -15
-25 -47 -76 -71 -115 -25 -38 -48 -77 -52 -85 -4 -8 -23 -40 -42 -70 -54 -84
-60 -94 -67 -113 -12 -33 -23 -21 -84 83 -11 19 -65 105 -120 190 -55 85 -103
162 -107 170 -4 8 -26 44 -49 80 -45 71 -133 210 -149 237 -5 10 -31 50 -57
91 -27 40 -48 78 -48 83 0 5 -4 9 -10 9 -5 0 -10 5 -10 11 0 6 -13 30 -30 54
-16 24 -30 48 -30 53 0 5 -9 17 -20 27 -11 10 -20 24 -20 32 0 7 -4 13 -10 13
-5 0 -10 5 -10 10 0 6 -20 41 -43 78 -84 129 -150 235 -212 338 -16 27 -32 51
-35 54 -3 3 -10 14 -17 25 -35 57 -80 130 -93 151 -8 13 -44 70 -79 126 -86
137 -159 202 -252 224 -32 8 -149 13 -174 7z"/>
</g>
</svg>
